<svg xmlns="http://www.w3.org/2000/svg" xmlns:xlink="http://www.w3.org/1999/xlink" width="500" zoomAndPan="magnify" viewBox="0 0 375 187.499995" height="250" preserveAspectRatio="xMidYMid meet" version="1.0"><defs><g/><clipPath id="id1"><path d="M 173.125 0 L 301.03125 0 L 301.03125 166.058594 L 173.125 166.058594 Z M 173.125 0 " clip-rule="nonzero"/></clipPath></defs><g clip-path="url(#id1)"><path fill="#1c2120" d="M 173.125 0 L 301.03125 0 L 301.03125 166.058594 L 173.125 166.058594 L 173.125 0 " fill-opacity="1" fill-rule="nonzero"/></g><g fill="#1c2120" fill-opacity="1"><g transform="translate(52.346442, 117.076762)"><g><path d="M 9.578125 -94.796875 C 13.472656 -96.421875 16.953125 -96.125 20.015625 -93.90625 C 23.078125 -91.695312 25.382812 -88.125 26.9375 -83.1875 C 28.488281 -78.257812 28.953125 -72.484375 28.328125 -65.859375 C 27.703125 -59.242188 25.632812 -52.347656 22.125 -45.171875 C 18.613281 -38.003906 13.320312 -31.0625 6.25 -24.34375 C 5.75 -23.882812 5.488281 -23.476562 5.46875 -23.125 C 5.445312 -22.769531 5.484375 -22.398438 5.578125 -22.015625 C 5.617188 -21.765625 5.660156 -21.492188 5.703125 -21.203125 C 6.367188 -22.128906 7.265625 -23.132812 8.390625 -24.21875 C 9.515625 -25.300781 10.804688 -26.207031 12.265625 -26.9375 C 13.734375 -27.664062 15.300781 -27.914062 16.96875 -27.6875 C 18.644531 -27.457031 20.382812 -26.515625 22.1875 -24.859375 C 23.550781 -23.460938 24.394531 -21.632812 24.71875 -19.375 C 25.039062 -17.125 24.835938 -14.828125 24.109375 -12.484375 C 23.378906 -10.148438 22.113281 -8.179688 20.3125 -6.578125 C 18.507812 -4.972656 16.148438 -4.148438 13.234375 -4.109375 C 11.390625 -4.148438 9.878906 -4.484375 8.703125 -5.109375 C 7.523438 -5.734375 6.632812 -6.484375 6.03125 -7.359375 C 5.425781 -8.242188 5.046875 -9.015625 4.890625 -9.671875 C 5.003906 -9.210938 5.070312 -8.597656 5.09375 -7.828125 C 5.113281 -7.054688 5 -6.351562 4.75 -5.71875 C 4.5 -5.09375 4.019531 -4.757812 3.3125 -4.71875 C 1.5625 -4.71875 0.660156 -5.617188 0.609375 -7.421875 C 0.566406 -9.222656 0.507812 -11 0.4375 -12.75 C 0.394531 -14.914062 0.351562 -17.046875 0.3125 -19.140625 C 0.257812 -19.753906 0.234375 -20.441406 0.234375 -21.203125 C 0.078125 -24.390625 -0.0703125 -28.753906 -0.21875 -34.296875 C -0.363281 -39.847656 -0.382812 -45.851562 -0.28125 -52.3125 C -0.1875 -58.78125 0.171875 -65.050781 0.796875 -71.125 C 1.429688 -77.195312 2.445312 -82.375 3.84375 -86.65625 C 5.25 -90.945312 7.160156 -93.660156 9.578125 -94.796875 Z M 7.890625 -19.078125 C 7.640625 -18.734375 7.445312 -18.398438 7.3125 -18.078125 C 6.695312 -17.191406 6.335938 -16.4375 6.234375 -15.8125 C 6.128906 -15.1875 6.390625 -14.222656 7.015625 -12.921875 C 7.648438 -11.421875 8.53125 -10.226562 9.65625 -9.34375 C 10.78125 -8.46875 12.007812 -8.164062 13.34375 -8.4375 C 14.675781 -8.71875 15.992188 -9.800781 17.296875 -11.6875 C 18.097656 -12.945312 18.585938 -14.414062 18.765625 -16.09375 C 18.953125 -17.78125 18.71875 -19.347656 18.0625 -20.796875 C 17.414062 -22.242188 16.257812 -23.21875 14.59375 -23.71875 C 13.84375 -23.976562 13.050781 -23.96875 12.21875 -23.6875 C 11.382812 -23.414062 10.59375 -22.835938 9.84375 -21.953125 C 9.164062 -21.085938 8.515625 -20.128906 7.890625 -19.078125 Z M 5.4375 -27.21875 C 10.382812 -32.914062 14.628906 -39.289062 18.171875 -46.34375 C 21.710938 -53.394531 23.800781 -60.519531 24.4375 -67.71875 C 24.550781 -69.382812 24.441406 -71.597656 24.109375 -74.359375 C 23.785156 -77.117188 23.207031 -79.914062 22.375 -82.75 C 21.539062 -85.582031 20.421875 -87.972656 19.015625 -89.921875 C 17.617188 -91.878906 15.921875 -92.9375 13.921875 -93.09375 C 12.273438 -93.050781 10.921875 -91.695312 9.859375 -89.03125 C 8.796875 -86.363281 7.976562 -82.863281 7.40625 -78.53125 C 6.84375 -74.195312 6.414062 -69.492188 6.125 -64.421875 C 5.84375 -59.347656 5.679688 -54.351562 5.640625 -49.4375 C 5.597656 -44.53125 5.578125 -40.15625 5.578125 -36.3125 C 5.578125 -31.9375 5.53125 -28.90625 5.4375 -27.21875 Z M 5.4375 -27.21875 "/></g></g></g><g fill="#1c2120" fill-opacity="1"><g transform="translate(80.787443, 117.076762)"><g><path d="M 18.796875 -92.71875 C 21.554688 -92.351562 23.953125 -90.40625 25.984375 -86.875 C 28.015625 -83.34375 29.394531 -78.78125 30.125 -73.1875 C 30.851562 -67.601562 30.613281 -61.5625 29.40625 -55.0625 C 28.195312 -48.570312 25.738281 -42.179688 22.03125 -35.890625 C 18.332031 -29.609375 13.097656 -23.957031 6.328125 -18.9375 C 6.523438 -16.320312 6.921875 -13.734375 7.515625 -11.171875 C 8.109375 -8.617188 8.988281 -6.59375 10.15625 -5.09375 C 11.195312 -3.882812 12.4375 -3.507812 13.875 -3.96875 C 15.3125 -4.425781 16.753906 -5.375 18.203125 -6.8125 C 19.648438 -8.257812 20.96875 -9.847656 22.15625 -11.578125 C 23.34375 -13.316406 24.207031 -14.835938 24.75 -16.140625 C 25.207031 -17.097656 25.65625 -17.578125 26.09375 -17.578125 C 26.539062 -17.578125 26.664062 -17.097656 26.46875 -16.140625 C 25.664062 -13.835938 24.6875 -11.617188 23.53125 -9.484375 C 22.382812 -7.359375 20.890625 -5.4375 19.046875 -3.71875 C 17.628906 -2.375 15.941406 -1.5 13.984375 -1.09375 C 10.878906 -0.632812 8.359375 -1.457031 6.421875 -3.5625 C 4.484375 -5.675781 3.050781 -8.691406 2.125 -12.609375 C 1.507812 -15.078125 1.085938 -18.753906 0.859375 -23.640625 C 0.628906 -28.523438 0.628906 -34.019531 0.859375 -40.125 C 1.085938 -46.238281 1.601562 -52.425781 2.40625 -58.6875 C 3.21875 -64.957031 4.320312 -70.710938 5.71875 -75.953125 C 7.125 -81.203125 8.90625 -85.367188 11.0625 -88.453125 C 13.21875 -91.546875 15.796875 -92.96875 18.796875 -92.71875 Z M 6.390625 -23.078125 C 12.410156 -28.640625 16.921875 -34.515625 19.921875 -40.703125 C 22.929688 -46.890625 24.835938 -52.957031 25.640625 -58.90625 C 26.441406 -64.851562 26.503906 -70.21875 25.828125 -75 C 25.148438 -79.789062 24.097656 -83.550781 22.671875 -86.28125 C 21.253906 -89.019531 19.863281 -90.265625 18.5 -90.015625 C 16.789062 -89.515625 15.285156 -87.757812 13.984375 -84.75 C 12.679688 -81.738281 11.578125 -77.9375 10.671875 -73.34375 C 9.773438 -68.75 9.023438 -63.84375 8.421875 -58.625 C 7.816406 -53.40625 7.347656 -48.351562 7.015625 -43.46875 C 6.691406 -38.582031 6.484375 -34.320312 6.390625 -30.6875 C 6.296875 -27.050781 6.296875 -24.515625 6.390625 -23.078125 Z M 6.390625 -23.078125 "/></g></g></g><g fill="#1c2120" fill-opacity="1"><g transform="translate(105.092192, 117.076762)"><g><path d="M 3.3125 -3.046875 C 2.851562 -2.992188 2.347656 -3.3125 1.796875 -4 C 1.253906 -4.6875 0.78125 -5.863281 0.375 -7.53125 C -0.03125 -9.207031 -0.175781 -11.53125 -0.0625 -14.5 C -0.0625 -14.789062 -0.0625 -15.164062 -0.0625 -15.625 C -0.0625 -16.757812 -0.015625 -18.097656 0.078125 -19.640625 C 0.179688 -21.179688 0.40625 -22.5625 0.75 -23.78125 C 1.09375 -25 1.617188 -25.734375 2.328125 -25.984375 C 4.441406 -26.554688 5.59375 -25.800781 5.78125 -23.71875 C 5.78125 -23.082031 5.753906 -22.4375 5.703125 -21.78125 C 5.660156 -21.476562 5.640625 -21.15625 5.640625 -20.8125 C 5.597656 -19.863281 5.550781 -18.929688 5.5 -18.015625 C 5.5 -17.210938 5.46875 -16.4375 5.40625 -15.6875 C 5.40625 -15.1875 5.40625 -14.457031 5.40625 -13.5 C 5.46875 -12.15625 5.484375 -10.691406 5.453125 -9.109375 C 5.421875 -7.523438 5.242188 -6.144531 4.921875 -4.96875 C 4.597656 -3.800781 4.0625 -3.160156 3.3125 -3.046875 Z M 5.328125 -33.0625 C 5.078125 -32.8125 4.726562 -32.648438 4.28125 -32.578125 C 3.84375 -32.515625 3.5 -32.550781 3.25 -32.6875 C 3 -32.9375 2.832031 -33.210938 2.75 -33.515625 C 2.664062 -33.828125 2.625 -34.195312 2.625 -34.625 C 2.675781 -34.738281 2.703125 -34.84375 2.703125 -34.9375 C 2.742188 -35.351562 2.847656 -35.753906 3.015625 -36.140625 C 3.460938 -37.296875 4.382812 -37.796875 5.78125 -37.640625 C 6.28125 -37.597656 6.65625 -37.398438 6.90625 -37.046875 C 7.15625 -36.691406 7.234375 -36.296875 7.140625 -35.859375 C 6.796875 -34.785156 6.191406 -33.851562 5.328125 -33.0625 Z M 5.328125 -33.0625 "/></g></g></g><g fill="#1c2120" fill-opacity="1"><g transform="translate(114.390212, 117.076762)"><g><path d="M 26.84375 -16.6875 C 27.25 -16.9375 27.578125 -17.03125 27.828125 -16.96875 C 28.078125 -16.914062 28.265625 -16.8125 28.390625 -16.65625 C 28.515625 -16.507812 28.585938 -16.332031 28.609375 -16.125 C 28.640625 -15.925781 28.609375 -15.804688 28.515625 -15.765625 C 27.554688 -14.753906 26.492188 -13.703125 25.328125 -12.609375 C 23.785156 -11.066406 22.25 -9.5 20.71875 -7.90625 C 19.1875 -6.320312 17.898438 -4.828125 16.859375 -3.421875 C 16.304688 -2.785156 16.328125 -2.15625 16.921875 -1.53125 C 18.765625 0.71875 20.265625 3.222656 21.421875 5.984375 C 22.585938 8.742188 23.332031 11.460938 23.65625 14.140625 C 23.976562 16.816406 23.8125 19.15625 23.15625 21.15625 C 22.507812 23.164062 21.3125 24.546875 19.5625 25.296875 C 17.894531 25.890625 16.195312 25.617188 14.46875 24.484375 C 12.75 23.359375 11.234375 21.6875 9.921875 19.46875 C 8.617188 17.25 7.789062 14.789062 7.4375 12.09375 C 7.082031 9.40625 7.441406 6.8125 8.515625 4.3125 C 8.941406 3.351562 9.441406 2.40625 10.015625 1.46875 C 10.316406 0.96875 10.613281 0.46875 10.90625 -0.03125 C 11.40625 -0.945312 11.175781 -1.609375 10.21875 -2.015625 C 8.46875 -2.859375 6.613281 -3.15625 4.65625 -2.90625 C 3.46875 -2.65625 2.289062 -2.734375 1.125 -3.140625 C 0.78125 -3.273438 0.554688 -3.519531 0.453125 -3.875 C 0.359375 -4.226562 0.457031 -4.554688 0.75 -4.859375 C 1.550781 -5.722656 2.40625 -6.53125 3.3125 -7.28125 C 5.519531 -9.125 7.5625 -11.320312 9.4375 -13.875 C 11.320312 -16.425781 12.734375 -19.117188 13.671875 -21.953125 C 13.835938 -22.296875 13.832031 -22.628906 13.65625 -22.953125 C 13.488281 -23.285156 13.242188 -23.539062 12.921875 -23.71875 C 12.117188 -24.34375 11.242188 -24.628906 10.296875 -24.578125 C 8.535156 -24.460938 6.984375 -23.90625 5.640625 -22.90625 C 4.722656 -22.269531 4.328125 -21.660156 4.453125 -21.078125 C 4.585938 -20.492188 4.90625 -19.90625 5.40625 -19.3125 C 5.8125 -18.8125 6.164062 -18.273438 6.46875 -17.703125 C 6.507812 -17.523438 6.429688 -17.3125 6.234375 -17.0625 C 6.046875 -16.8125 5.796875 -16.59375 5.484375 -16.40625 C 5.179688 -16.226562 4.9375 -16.113281 4.75 -16.0625 C 3.75 -15.863281 2.835938 -16.09375 2.015625 -16.75 C 0.921875 -17.800781 0.347656 -19.003906 0.296875 -20.359375 C 0.253906 -21.710938 0.78125 -22.914062 1.875 -23.96875 C 2.582031 -24.625 3.359375 -25.144531 4.203125 -25.53125 C 5.710938 -26.289062 7.257812 -26.734375 8.84375 -26.859375 C 10.425781 -26.984375 12.015625 -26.921875 13.609375 -26.671875 C 14.515625 -26.460938 15.390625 -26.109375 16.234375 -25.609375 C 18.191406 -24.515625 18.820312 -22.914062 18.125 -20.8125 C 17.414062 -18.601562 16.257812 -16.304688 14.65625 -13.921875 C 13.0625 -11.546875 11.457031 -9.582031 9.84375 -8.03125 C 9.707031 -7.875 9.5625 -7.71875 9.40625 -7.5625 C 8.988281 -7.21875 8.679688 -6.921875 8.484375 -6.671875 C 8.296875 -6.421875 8.25 -6.171875 8.34375 -5.921875 C 9.394531 -6.003906 10.320312 -5.910156 11.125 -5.640625 C 11.9375 -5.367188 12.695312 -4.984375 13.40625 -4.484375 C 13.90625 -4.597656 14.664062 -5.140625 15.6875 -6.109375 C 16.71875 -7.078125 17.878906 -8.242188 19.171875 -9.609375 C 20.523438 -11.066406 21.878906 -12.441406 23.234375 -13.734375 C 24.585938 -15.035156 25.789062 -16.019531 26.84375 -16.6875 Z M 16.03125 21.921875 C 17.425781 22.503906 18.375 22.171875 18.875 20.921875 C 19.375 19.671875 19.5 17.90625 19.25 15.625 C 19 13.34375 18.484375 11.019531 17.703125 8.65625 C 16.929688 6.300781 16 4.347656 14.90625 2.796875 C 14.75 2.503906 14.582031 2.242188 14.40625 2.015625 C 14.238281 1.785156 13.945312 1.625 13.53125 1.53125 C 12.03125 3.582031 11.113281 6.007812 10.78125 8.8125 C 10.457031 11.625 10.734375 14.25 11.609375 16.6875 C 12.484375 19.125 13.957031 20.867188 16.03125 21.921875 Z M 16.03125 21.921875 "/></g></g></g><g fill="#1c2120" fill-opacity="1"><g transform="translate(139.891398, 117.076762)"><g><path d="M 19.5625 -22.59375 C 20.601562 -22.707031 21.332031 -22.515625 21.75 -22.015625 C 22.082031 -21.472656 22.226562 -19.570312 22.1875 -16.3125 C 22.144531 -13.050781 21.984375 -9.257812 21.703125 -4.9375 C 21.429688 -0.625 21.117188 3.367188 20.765625 7.046875 C 20.410156 10.734375 20.132812 13.304688 19.9375 14.765625 C 18.476562 23.128906 15.867188 30.117188 12.109375 35.734375 C 8.347656 41.359375 4.050781 45.703125 -0.78125 48.765625 C -5.613281 51.828125 -10.378906 53.679688 -15.078125 54.328125 C -19.773438 54.984375 -23.765625 54.53125 -27.046875 52.96875 C -30.328125 51.40625 -32.28125 48.804688 -32.90625 45.171875 C -33.53125 41.535156 -32.210938 36.957031 -28.953125 31.4375 C -25.691406 25.925781 -19.878906 19.570312 -11.515625 12.375 C -8.191406 9.613281 -3.585938 6.273438 2.296875 2.359375 C 8.191406 -1.554688 12.863281 -4.210938 16.3125 -5.609375 C 16.375 -6.265625 16.429688 -6.96875 16.484375 -7.71875 C 15.066406 -6.101562 13.617188 -5.171875 12.140625 -4.921875 C 10.660156 -4.671875 9.289062 -4.648438 8.03125 -4.859375 C 7.9375 -4.859375 7.867188 -4.859375 7.828125 -4.859375 C 5.566406 -5.148438 3.796875 -6.191406 2.515625 -7.984375 C 1.242188 -9.773438 0.429688 -11.804688 0.078125 -14.078125 C -0.265625 -16.359375 -0.164062 -18.398438 0.375 -20.203125 C 0.925781 -22.003906 1.953125 -23.085938 3.453125 -23.453125 C 4.066406 -23.546875 4.75 -23.601562 5.5 -23.625 C 6.25 -23.644531 6.875 -23.554688 7.375 -23.359375 C 7.882812 -23.171875 8.082031 -22.769531 7.96875 -22.15625 C 7.46875 -20.351562 7.179688 -18.363281 7.109375 -16.1875 C 7.046875 -14.007812 7.234375 -12.101562 7.671875 -10.46875 C 8.117188 -8.84375 8.914062 -7.96875 10.0625 -7.84375 C 11.21875 -7.71875 12.773438 -8.785156 14.734375 -11.046875 C 15.648438 -12.179688 16.273438 -13.398438 16.609375 -14.703125 C 16.609375 -16.109375 16.585938 -17.441406 16.546875 -18.703125 C 16.503906 -19.859375 16.484375 -20.835938 16.484375 -21.640625 C 16.734375 -22.023438 17.140625 -22.28125 17.703125 -22.40625 C 18.273438 -22.53125 18.789062 -22.59375 19.25 -22.59375 C 19.363281 -22.59375 19.46875 -22.59375 19.5625 -22.59375 Z M 16.171875 0.40625 C 16.171875 0.363281 16.171875 0.304688 16.171875 0.234375 C 16.210938 -0.0546875 16.242188 -0.441406 16.265625 -0.921875 C 16.296875 -1.398438 16.265625 -1.773438 16.171875 -2.046875 C 16.078125 -2.328125 15.875 -2.363281 15.5625 -2.15625 C 15.21875 -1.90625 14.816406 -1.628906 14.359375 -1.328125 C 11.460938 0.628906 7.664062 3.363281 2.96875 6.875 C -1.71875 10.382812 -6.421875 14.347656 -11.140625 18.765625 C -12.078125 19.660156 -13.410156 20.992188 -15.140625 22.765625 C -16.878906 24.546875 -18.695312 26.582031 -20.59375 28.875 C -22.5 31.164062 -24.171875 33.523438 -25.609375 35.953125 C -27.046875 38.378906 -27.9375 40.664062 -28.28125 42.8125 C -28.632812 44.96875 -28.15625 46.820312 -26.84375 48.375 C -25.082031 50.238281 -22.535156 51.046875 -19.203125 50.796875 C -15.878906 50.546875 -12.234375 49.289062 -8.265625 47.03125 C -4.304688 44.78125 -0.5 41.535156 3.15625 37.296875 C 6.820312 33.054688 9.851562 27.851562 12.25 21.6875 C 14.65625 15.519531 15.960938 8.425781 16.171875 0.40625 Z M 16.171875 0.40625 "/></g></g></g><g fill="#ffffff" fill-opacity="1"><g transform="translate(167.469127, 117.076762)"><g><path d="M 103.796875 -76.609375 C 104.796875 -79.367188 105.34375 -82.207031 105.4375 -85.125 C 105.59375 -90.726562 103.265625 -94.957031 98.453125 -97.8125 C 95.285156 -99.675781 91.90625 -100.929688 88.3125 -101.578125 C 80.988281 -102.828125 73.613281 -103.203125 66.1875 -102.703125 C 58 -102.265625 50.007812 -101.117188 42.21875 -99.265625 C 34.425781 -97.410156 26.742188 -95 19.171875 -92.03125 C 15.503906 -90.570312 12 -88.816406 8.65625 -86.765625 C 7.351562 -86.015625 6.109375 -85.160156 4.921875 -84.203125 C 3.734375 -83.242188 2.695312 -82.113281 1.8125 -80.8125 C -0.101562 -78.257812 0.144531 -75.957031 2.5625 -73.90625 C 3.5625 -73.039062 4.632812 -72.335938 5.78125 -71.796875 C 7.644531 -70.898438 9.523438 -70.101562 11.421875 -69.40625 C 17.097656 -67.53125 22.863281 -66.09375 28.71875 -65.09375 C 29.925781 -64.84375 30.691406 -64.878906 31.015625 -65.203125 C 31.347656 -65.535156 31.4375 -66.351562 31.28125 -67.65625 C 31.238281 -68.65625 31.132812 -69.660156 30.96875 -70.671875 C 30.882812 -71.367188 30.816406 -72.097656 30.765625 -72.859375 C 30.609375 -73.609375 30.609375 -74.3125 30.765625 -74.96875 C 31.066406 -75.863281 31.71875 -76.367188 32.71875 -76.484375 C 33.125 -76.484375 33.453125 -76.367188 33.703125 -76.140625 C 33.953125 -75.910156 34.148438 -75.613281 34.296875 -75.25 C 34.546875 -74.5625 34.726562 -73.863281 34.84375 -73.15625 C 35.175781 -70.695312 35.492188 -68.238281 35.796875 -65.78125 C 35.953125 -64.632812 36.601562 -63.984375 37.75 -63.828125 C 39.363281 -63.617188 40.96875 -63.390625 42.5625 -63.140625 C 42.769531 -63.097656 42.972656 -63.078125 43.171875 -63.078125 C 45.140625 -62.773438 47.066406 -62.421875 48.953125 -62.015625 C 49.617188 -61.878906 50.25 -61.601562 50.84375 -61.1875 C 50.882812 -61.1875 50.90625 -61.1875 50.90625 -61.1875 C 51.113281 -61.101562 51.242188 -60.9375 51.296875 -60.6875 C 51.359375 -60.4375 51.347656 -60.164062 51.265625 -59.875 C 51.179688 -59.59375 51.0625 -59.382812 50.90625 -59.25 C 50.15625 -58.695312 49.332031 -58.46875 48.4375 -58.5625 C 47.476562 -58.65625 46.546875 -58.757812 45.640625 -58.875 C 45.140625 -58.957031 44.640625 -59.023438 44.140625 -59.078125 C 42.378906 -59.328125 40.679688 -59.554688 39.046875 -59.765625 C 38.378906 -59.878906 37.726562 -59.957031 37.09375 -60 C 36.726562 -59.632812 36.507812 -59.28125 36.4375 -58.9375 C 36.375 -58.59375 36.34375 -58.238281 36.34375 -57.875 C 36.34375 -57.832031 36.34375 -57.789062 36.34375 -57.75 C 36.34375 -45.507812 36.34375 -33.269531 36.34375 -21.03125 C 36.34375 -18.632812 36.34375 -16.207031 36.34375 -13.75 C 36.476562 -13.75 36.625 -13.722656 36.78125 -13.671875 C 36.988281 -13.554688 37.160156 -13.523438 37.296875 -13.578125 C 38.253906 -13.984375 39.191406 -14.4375 40.109375 -14.9375 C 49.972656 -20.25 59.289062 -26.390625 68.0625 -33.359375 C 73.738281 -37.878906 79.054688 -42.71875 84.015625 -47.875 C 88.972656 -53.039062 93.515625 -58.628906 97.640625 -64.640625 C 100.191406 -68.410156 102.242188 -72.398438 103.796875 -76.609375 Z M 4.265625 -67.59375 C 2.722656 -68.289062 1.253906 -69.117188 -0.140625 -70.078125 C -4.609375 -73.335938 -5.210938 -77.222656 -1.953125 -81.734375 C -1.054688 -82.992188 -0.0195312 -84.109375 1.15625 -85.078125 C 2.34375 -86.046875 3.566406 -86.960938 4.828125 -87.828125 C 9.628906 -90.878906 14.6875 -93.429688 20 -95.484375 C 35.957031 -101.796875 52.484375 -105.453125 69.578125 -106.453125 C 77.046875 -106.960938 84.414062 -106.5 91.6875 -105.0625 C 94.65625 -104.445312 97.484375 -103.488281 100.171875 -102.1875 C 100.992188 -101.84375 101.78125 -101.46875 102.53125 -101.0625 C 108.9375 -97.632812 111.96875 -92.289062 111.625 -85.03125 C 111.320312 -80.757812 110.257812 -76.703125 108.4375 -72.859375 C 106.9375 -69.546875 105.195312 -66.375 103.21875 -63.34375 C 101.25 -60.3125 99.082031 -57.382812 96.71875 -54.5625 C 85.476562 -40.976562 72.394531 -29.546875 57.46875 -20.265625 C 51.84375 -16.617188 46 -13.363281 39.9375 -10.5 C 38.726562 -9.90625 37.890625 -9.179688 37.421875 -8.328125 C 36.953125 -7.472656 36.71875 -6.394531 36.71875 -5.09375 C 36.394531 7.6875 36.019531 20.492188 35.59375 33.328125 C 35.519531 35.953125 35.4375 38.5625 35.34375 41.15625 C 35.300781 42.957031 35.203125 44.796875 35.046875 46.671875 C 35.046875 46.867188 35.019531 47.0625 34.96875 47.25 C 34.925781 48.15625 34.445312 48.816406 33.53125 49.234375 C 33.082031 49.410156 32.6875 49.410156 32.34375 49.234375 C 32.132812 49.117188 32.007812 49.015625 31.96875 48.921875 C 31.71875 48.921875 31.507812 48.863281 31.34375 48.75 C 30.957031 48.570312 30.742188 48.253906 30.703125 47.796875 C 30.628906 47.378906 30.628906 46.976562 30.703125 46.59375 L 30.703125 45.984375 C 30.703125 44.140625 30.722656 42.257812 30.765625 40.34375 L 31.21875 -4.546875 C 31.21875 -4.953125 31.191406 -5.363281 31.140625 -5.78125 L 31.078125 -5.984375 C 30.960938 -5.984375 30.835938 -5.960938 30.703125 -5.921875 C 30.285156 -5.828125 29.910156 -5.675781 29.578125 -5.46875 C 29.410156 -5.425781 29.226562 -5.347656 29.03125 -5.234375 C 22.507812 -2.378906 15.851562 0.0976562 9.0625 2.203125 C 2.269531 4.316406 -4.613281 6.171875 -11.59375 7.765625 C -13.144531 8.171875 -13.960938 8.101562 -14.046875 7.5625 C -14.796875 7.601562 -15.128906 7.347656 -15.046875 6.796875 C -14.953125 6.253906 -14.695312 5.859375 -14.28125 5.609375 C -13.875 5.359375 -13.421875 5.175781 -12.921875 5.0625 L -12.859375 5.0625 C -11.398438 4.601562 -9.914062 4.203125 -8.40625 3.859375 L -6.15625 3.25 C 5.875 0.144531 17.5 -3.988281 28.71875 -9.15625 C 29.625 -9.550781 30.285156 -10.050781 30.703125 -10.65625 C 31.128906 -11.257812 31.34375 -12.0625 31.34375 -13.0625 C 31.457031 -23.925781 31.617188 -34.832031 31.828125 -45.78125 L 31.96875 -56.6875 C 31.96875 -57.132812 31.941406 -57.585938 31.890625 -58.046875 C 31.890625 -59.304688 31.742188 -60.128906 31.453125 -60.515625 C 31.378906 -60.515625 31.320312 -60.535156 31.28125 -60.578125 C 30.9375 -60.691406 30.457031 -60.769531 29.84375 -60.8125 C 22.226562 -61.90625 14.765625 -63.742188 7.453125 -66.328125 C 6.335938 -66.671875 5.273438 -67.09375 4.265625 -67.59375 Z M 4.265625 -67.59375 "/></g></g></g><g fill="#ffffff" fill-opacity="1"><g transform="translate(250.706912, 117.076762)"><g><path d="M 3.3125 -3.046875 C 2.851562 -2.992188 2.347656 -3.3125 1.796875 -4 C 1.253906 -4.6875 0.78125 -5.863281 0.375 -7.53125 C -0.03125 -9.207031 -0.175781 -11.53125 -0.0625 -14.5 C -0.0625 -14.789062 -0.0625 -15.164062 -0.0625 -15.625 C -0.0625 -16.757812 -0.015625 -18.097656 0.078125 -19.640625 C 0.179688 -21.179688 0.40625 -22.5625 0.75 -23.78125 C 1.09375 -25 1.617188 -25.734375 2.328125 -25.984375 C 4.441406 -26.554688 5.59375 -25.800781 5.78125 -23.71875 C 5.78125 -23.082031 5.753906 -22.4375 5.703125 -21.78125 C 5.660156 -21.476562 5.640625 -21.15625 5.640625 -20.8125 C 5.597656 -19.863281 5.550781 -18.929688 5.5 -18.015625 C 5.5 -17.210938 5.46875 -16.4375 5.40625 -15.6875 C 5.40625 -15.1875 5.40625 -14.457031 5.40625 -13.5 C 5.46875 -12.15625 5.484375 -10.691406 5.453125 -9.109375 C 5.421875 -7.523438 5.242188 -6.144531 4.921875 -4.96875 C 4.597656 -3.800781 4.0625 -3.160156 3.3125 -3.046875 Z M 5.328125 -33.0625 C 5.078125 -32.8125 4.726562 -32.648438 4.28125 -32.578125 C 3.84375 -32.515625 3.5 -32.550781 3.25 -32.6875 C 3 -32.9375 2.832031 -33.210938 2.75 -33.515625 C 2.664062 -33.828125 2.625 -34.195312 2.625 -34.625 C 2.675781 -34.738281 2.703125 -34.84375 2.703125 -34.9375 C 2.742188 -35.351562 2.847656 -35.753906 3.015625 -36.140625 C 3.460938 -37.296875 4.382812 -37.796875 5.78125 -37.640625 C 6.28125 -37.597656 6.65625 -37.398438 6.90625 -37.046875 C 7.15625 -36.691406 7.234375 -36.296875 7.140625 -35.859375 C 6.796875 -34.785156 6.191406 -33.851562 5.328125 -33.0625 Z M 5.328125 -33.0625 "/></g></g></g><g fill="#ffffff" fill-opacity="1"><g transform="translate(260.004932, 117.076762)"><g><path d="M 50.390625 -20.71875 C 51.390625 -21.175781 51.972656 -21.253906 52.140625 -20.953125 C 52.316406 -20.359375 51.78125 -19.289062 50.53125 -17.75 C 49.28125 -16.21875 47.582031 -14.65625 45.4375 -13.0625 C 40.257812 -9.457031 35.90625 -7.300781 32.375 -6.59375 C 28.84375 -5.882812 25.957031 -6.101562 23.71875 -7.25 C 21.488281 -8.40625 19.828125 -9.988281 18.734375 -12 C 17.429688 -14.257812 16.625 -16.492188 16.3125 -18.703125 C 15.875 -21.117188 15.28125 -22.484375 14.53125 -22.796875 C 13.78125 -23.117188 12.976562 -22.773438 12.125 -21.765625 C 11.269531 -20.765625 10.4375 -19.453125 9.625 -17.828125 C 8.8125 -16.203125 8.144531 -14.613281 7.625 -13.0625 C 7.101562 -11.507812 6.816406 -10.332031 6.765625 -9.53125 C 6.609375 -9.082031 6.460938 -8.648438 6.328125 -8.234375 C 6.117188 -7.597656 5.890625 -6.972656 5.640625 -6.359375 C 4.984375 -4.648438 3.832031 -4.023438 2.1875 -4.484375 C 1.28125 -4.640625 0.753906 -5.195312 0.609375 -6.15625 C 0.546875 -6.789062 0.515625 -7.460938 0.515625 -8.171875 C 0.515625 -8.710938 0.488281 -9.296875 0.4375 -9.921875 C 0.351562 -14.015625 0.253906 -18.148438 0.140625 -22.328125 C 0.140625 -22.828125 0.378906 -23.171875 0.859375 -23.359375 C 1.335938 -23.554688 1.890625 -23.644531 2.515625 -23.625 C 3.140625 -23.601562 3.691406 -23.503906 4.171875 -23.328125 C 4.648438 -23.160156 4.910156 -22.914062 4.953125 -22.59375 C 5.066406 -21.914062 5.125 -21.320312 5.125 -20.8125 C 5.125 -20.113281 5.171875 -19.609375 5.265625 -19.296875 C 5.359375 -18.992188 5.566406 -19.003906 5.890625 -19.328125 C 6.222656 -19.660156 6.789062 -20.351562 7.59375 -21.40625 C 8.84375 -23.40625 10.425781 -25.113281 12.34375 -26.53125 C 13.1875 -27.164062 14.179688 -27.625 15.328125 -27.90625 C 16.484375 -28.195312 17.597656 -28.238281 18.671875 -28.03125 C 19.804688 -27.738281 20.695312 -27.085938 21.34375 -26.078125 C 22 -25.078125 22.488281 -23.929688 22.8125 -22.640625 C 23.144531 -21.359375 23.394531 -20.171875 23.5625 -19.078125 C 23.601562 -18.773438 23.644531 -18.523438 23.6875 -18.328125 C 23.9375 -16.867188 24.269531 -15.539062 24.6875 -14.34375 C 25.113281 -13.144531 25.804688 -12.203125 26.765625 -11.515625 C 27.722656 -10.835938 29.125 -10.578125 30.96875 -10.734375 C 34.976562 -11.023438 38.160156 -11.859375 40.515625 -13.234375 C 42.878906 -14.617188 44.875 -16.085938 46.5 -17.640625 C 46.75 -17.847656 46.960938 -18.050781 47.140625 -18.25 C 47.503906 -18.5 47.8125 -18.753906 48.0625 -19.015625 C 48.65625 -19.648438 49.429688 -20.21875 50.390625 -20.71875 Z M 50.390625 -20.71875 "/></g></g></g><g fill="#1c2120" fill-opacity="1"><g transform="translate(173.124018, 180.165513)"><g><path d="M 3.347656 0.242188 C 6.625 0.242188 8.253906 -1.628906 8.253906 -4.820312 L 8.253906 -10.699219 C 8.253906 -11.511719 8.289062 -11.84375 8.355469 -12.136719 L 7.28125 -12.136719 C 7.335938 -11.84375 7.386719 -11.511719 7.386719 -10.699219 L 7.386719 -4.871094 C 7.386719 -2.046875 6.015625 -0.570312 3.398438 -0.570312 C 2.304688 -0.570312 1.214844 -0.847656 0.449219 -1.28125 L 0.363281 -0.433594 C 1.179688 -0.0507812 2.238281 0.242188 3.347656 0.242188 Z M 3.347656 0.242188 "/></g></g></g><g fill="#1c2120" fill-opacity="1"><g transform="translate(183.19432, 180.165513)"><g><path d="M 5.929688 0.242188 C 7.59375 0.242188 9.378906 -0.570312 9.953125 -2.445312 L 10.074219 -2.445312 L 10.074219 -1.4375 C 10.074219 -0.625 10.039062 -0.3125 9.96875 0 L 10.957031 0 C 10.890625 -0.3125 10.855469 -0.625 10.855469 -1.4375 L 10.855469 -7.246094 C 10.855469 -8.0625 10.890625 -8.375 10.957031 -8.667969 L 9.96875 -8.667969 C 10.039062 -8.375 10.074219 -8.0625 10.074219 -7.246094 L 10.074219 -4.300781 C 10.074219 -2.238281 8.183594 -0.503906 6 -0.503906 C 3.902344 -0.503906 2.515625 -1.578125 2.515625 -3.726562 L 2.515625 -7.246094 C 2.515625 -8.0625 2.546875 -8.375 2.617188 -8.667969 L 1.628906 -8.667969 C 1.699219 -8.375 1.734375 -8.0625 1.734375 -7.246094 L 1.734375 -3.710938 C 1.734375 -1.179688 3.347656 0.242188 5.929688 0.242188 Z M 5.929688 0.242188 "/></g></g></g><g fill="#1c2120" fill-opacity="1"><g transform="translate(195.829863, 180.165513)"><g><path d="M 5.375 0.242188 C 7.941406 0.242188 9.414062 -0.832031 9.414062 -2.269531 C 9.414062 -5.824219 2.011719 -3.882812 2.011719 -6.570312 C 2.011719 -7.664062 3.484375 -8.253906 5.167969 -8.253906 C 6.378906 -8.253906 7.957031 -7.890625 8.773438 -7.542969 L 8.773438 -8.253906 C 7.890625 -8.582031 6.398438 -8.914062 5.183594 -8.914062 C 2.878906 -8.914062 1.214844 -7.992188 1.214844 -6.554688 C 1.214844 -3.171875 8.632812 -5.097656 8.632812 -2.238281 C 8.632812 -1.128906 7.386719 -0.433594 5.375 -0.433594 C 3.867188 -0.433594 1.925781 -0.902344 0.867188 -1.507812 L 0.816406 -0.726562 C 1.839844 -0.191406 3.917969 0.242188 5.375 0.242188 Z M 5.375 0.242188 "/></g></g></g><g fill="#1c2120" fill-opacity="1"><g transform="translate(206.19482, 180.165513)"><g><path d="M 5.636719 0.242188 C 6.398438 0.242188 7.300781 0.0507812 7.800781 -0.191406 L 7.800781 -0.9375 C 7.351562 -0.660156 6.46875 -0.449219 5.6875 -0.449219 C 4.421875 -0.449219 3.398438 -0.988281 3.398438 -2.652344 L 3.398438 -7.941406 L 7.75 -7.941406 L 7.75 -8.667969 L 3.398438 -8.667969 L 3.398438 -12.136719 L 2.601562 -11.945312 L 2.601562 -8.667969 L 0.292969 -8.667969 L 0.292969 -7.941406 L 2.601562 -7.941406 L 2.601562 -2.636719 C 2.601562 -0.589844 3.96875 0.242188 5.636719 0.242188 Z M 5.636719 0.242188 "/></g></g></g><g fill="#1c2120" fill-opacity="1"><g transform="translate(214.254526, 180.165513)"><g/></g></g><g fill="#1c2120" fill-opacity="1"><g transform="translate(219.541, 180.165513)"><g><path d="M 6.933594 0.242188 C 10.28125 0.242188 12.464844 -1.179688 12.464844 -3.257812 C 12.464844 -7.871094 2.117188 -5.445312 2.117188 -9.136719 C 2.117188 -10.679688 4.316406 -11.601562 6.640625 -11.582031 C 8.445312 -11.582031 10.28125 -11.113281 11.410156 -10.472656 L 11.410156 -11.375 C 10.230469 -11.929688 8.460938 -12.378906 6.640625 -12.378906 C 3.761719 -12.378906 1.230469 -11.167969 1.230469 -9.101562 C 1.230469 -4.527344 11.601562 -6.96875 11.601562 -3.207031 C 11.601562 -1.59375 9.691406 -0.554688 6.96875 -0.554688 C 4.976562 -0.554688 2.878906 -1.003906 0.988281 -1.992188 L 0.9375 -1.074219 C 2.792969 -0.207031 4.941406 0.242188 6.933594 0.242188 Z M 6.933594 0.242188 "/></g></g></g><g fill="#1c2120" fill-opacity="1"><g transform="translate(233.008507, 180.165513)"><g><path d="M 1.683594 0 L 2.671875 0 C 2.601562 -0.292969 2.566406 -0.625 2.566406 -1.4375 L 2.566406 -4.371094 C 2.566406 -6.449219 4.457031 -8.183594 6.640625 -8.183594 C 8.738281 -8.183594 10.125 -7.089844 10.125 -4.941406 L 10.125 -1.4375 C 10.125 -0.625 10.089844 -0.292969 10.023438 0 L 11.011719 0 C 10.941406 -0.292969 10.90625 -0.625 10.90625 -1.4375 L 10.90625 -4.957031 C 10.90625 -7.507812 9.292969 -8.914062 6.710938 -8.914062 C 5.046875 -8.914062 3.257812 -8.097656 2.6875 -6.226562 L 2.566406 -6.226562 L 2.566406 -10.699219 C 2.566406 -11.511719 2.601562 -11.84375 2.671875 -12.136719 L 1.683594 -12.136719 C 1.75 -11.84375 1.785156 -11.511719 1.785156 -10.699219 L 1.785156 -1.4375 C 1.785156 -0.625 1.75 -0.292969 1.683594 0 Z M 1.683594 0 "/></g></g></g><g fill="#1c2120" fill-opacity="1"><g transform="translate(245.644051, 180.165513)"><g><path d="M 5.410156 0.242188 C 7.386719 0.242188 8.945312 -0.640625 9.46875 -1.664062 L 9.589844 -1.664062 L 9.589844 -1.40625 C 9.589844 -0.816406 9.519531 -0.292969 9.433594 0 L 10.472656 0 C 10.402344 -0.292969 10.367188 -0.625 10.367188 -1.4375 L 10.367188 -5.390625 C 10.367188 -8.046875 8.460938 -8.914062 5.824219 -8.914062 C 4.300781 -8.914062 3.070312 -8.601562 2.046875 -8.167969 L 2.046875 -7.402344 C 2.808594 -7.800781 4.335938 -8.203125 5.84375 -8.203125 C 8.203125 -8.203125 9.589844 -7.492188 9.589844 -5.410156 L 9.589844 -4.023438 L 9.449219 -4.023438 C 8.914062 -4.941406 7.386719 -5.84375 5.410156 -5.84375 C 2.53125 -5.84375 0.988281 -4.648438 0.988281 -2.828125 C 0.988281 -1.003906 2.546875 0.242188 5.410156 0.242188 Z M 5.582031 -0.449219 C 3.171875 -0.449219 1.785156 -1.386719 1.785156 -2.859375 C 1.785156 -4.335938 3.15625 -5.21875 5.582031 -5.21875 C 7.492188 -5.21875 9.589844 -4.28125 9.589844 -2.859375 C 9.589844 -1.214844 7.492188 -0.449219 5.582031 -0.449219 Z M 5.582031 -0.449219 "/></g></g></g><g fill="#1c2120" fill-opacity="1"><g transform="translate(257.742274, 180.165513)"><g><path d="M 1.683594 0 L 2.671875 0 C 2.601562 -0.292969 2.566406 -0.605469 2.566406 -1.421875 L 2.566406 -4.578125 C 2.566406 -6.503906 4.492188 -8.183594 6.242188 -8.183594 C 6.710938 -8.183594 7.28125 -8.078125 7.523438 -7.941406 L 7.523438 -8.6875 C 7.265625 -8.808594 6.726562 -8.914062 6.257812 -8.914062 C 4.664062 -8.914062 3.242188 -7.90625 2.671875 -6.226562 L 2.566406 -6.226562 L 2.566406 -7.230469 C 2.566406 -7.820312 2.671875 -8.425781 2.703125 -8.667969 L 1.683594 -8.667969 C 1.734375 -8.355469 1.769531 -8.046875 1.769531 -7.230469 L 1.769531 -1.421875 C 1.769531 -0.605469 1.734375 -0.292969 1.683594 0 Z M 1.683594 0 "/></g></g></g><g fill="#1c2120" fill-opacity="1"><g transform="translate(265.732654, 180.165513)"><g><path d="M 6.675781 0.242188 C 8.234375 0.242188 9.96875 -0.15625 10.90625 -0.761719 L 10.90625 -1.613281 C 10.039062 -0.917969 8.324219 -0.46875 6.691406 -0.46875 C 4.195312 -0.46875 1.890625 -1.871094 1.890625 -4.335938 L 1.976562 -4.402344 C 3.242188 -3.78125 4.855469 -3.242188 6.675781 -3.242188 C 9.554688 -3.242188 11.167969 -3.96875 11.167969 -5.859375 C 11.167969 -7.457031 9.449219 -8.914062 6.519531 -8.914062 C 3.625 -8.914062 1.09375 -7.074219 1.09375 -4.335938 C 1.09375 -1.59375 3.535156 0.242188 6.675781 0.242188 Z M 6.640625 -3.867188 C 5.046875 -3.867188 3.292969 -4.300781 1.941406 -4.957031 C 2.324219 -7.003906 4.527344 -8.203125 6.519531 -8.203125 C 8.945312 -8.203125 10.367188 -6.953125 10.367188 -5.859375 C 10.367188 -4.28125 8.652344 -3.867188 6.640625 -3.867188 Z M 6.640625 -3.867188 "/></g></g></g><g fill="#1c2120" fill-opacity="1"><g transform="translate(277.91754, 180.165513)"><g/></g></g><g fill="#1c2120" fill-opacity="1"><g transform="translate(283.204014, 180.165513)"><g><path d="M 2.132812 -10.765625 C 2.515625 -10.765625 2.808594 -11.0625 2.808594 -11.410156 C 2.808594 -11.773438 2.515625 -12.066406 2.132812 -12.066406 C 1.75 -12.066406 1.4375 -11.773438 1.4375 -11.410156 C 1.4375 -11.0625 1.75 -10.765625 2.132812 -10.765625 Z M 1.628906 0 L 2.617188 0 C 2.546875 -0.3125 2.515625 -0.625 2.515625 -1.4375 L 2.515625 -7.230469 C 2.515625 -8.046875 2.546875 -8.375 2.617188 -8.667969 C 2.375 -8.617188 1.871094 -8.617188 1.628906 -8.667969 C 1.699219 -8.375 1.734375 -8.046875 1.734375 -7.230469 L 1.734375 -1.4375 C 1.734375 -0.625 1.699219 -0.3125 1.628906 0 Z M 1.628906 0 "/></g></g></g><g fill="#1c2120" fill-opacity="1"><g transform="translate(287.450522, 180.165513)"><g><path d="M 5.636719 0.242188 C 6.398438 0.242188 7.300781 0.0507812 7.800781 -0.191406 L 7.800781 -0.9375 C 7.351562 -0.660156 6.46875 -0.449219 5.6875 -0.449219 C 4.421875 -0.449219 3.398438 -0.988281 3.398438 -2.652344 L 3.398438 -7.941406 L 7.75 -7.941406 L 7.75 -8.667969 L 3.398438 -8.667969 L 3.398438 -12.136719 L 2.601562 -11.945312 L 2.601562 -8.667969 L 0.292969 -8.667969 L 0.292969 -7.941406 L 2.601562 -7.941406 L 2.601562 -2.636719 C 2.601562 -0.589844 3.96875 0.242188 5.636719 0.242188 Z M 5.636719 0.242188 "/></g></g></g><g fill="#1c2120" fill-opacity="1"><g transform="translate(295.510228, 180.165513)"><g><path d="M 1.785156 0.171875 C 2.183594 0.171875 2.496094 -0.121094 2.496094 -0.503906 C 2.496094 -0.882812 2.183594 -1.179688 1.785156 -1.179688 C 1.40625 -1.179688 1.09375 -0.882812 1.09375 -0.503906 C 1.09375 -0.121094 1.40625 0.171875 1.785156 0.171875 Z M 1.785156 0.171875 "/></g></g></g><g fill="#1c2120" fill-opacity="1"><g transform="translate(299.09278, 180.165513)"><g/></g></g></svg>