<svg xmlns="http://www.w3.org/2000/svg" xmlns:xlink="http://www.w3.org/1999/xlink" width="500" zoomAndPan="magnify" viewBox="0 0 375 374.999991" height="500" preserveAspectRatio="xMidYMid meet" version="1.0"><defs><g/></defs><rect x="-37.5" width="450" fill="#ffffff" y="-37.499999" height="449.999989" fill-opacity="1"/><rect x="-37.5" width="450" fill="#1c2120" y="-37.499999" height="449.999989" fill-opacity="1"/><rect x="-37.5" width="450" fill="#ffffff" y="-37.499999" height="449.999989" fill-opacity="1"/><rect x="-37.5" width="450" fill="#1c2120" y="-37.499999" height="449.999989" fill-opacity="1"/><g fill="#ffffff" fill-opacity="1"><g transform="translate(21.949571, 261.442442)"><g><path d="M 230.046875 -169.8125 C 232.273438 -175.925781 233.488281 -182.21875 233.6875 -188.6875 C 234.039062 -201.113281 228.890625 -210.484375 218.234375 -216.796875 C 211.210938 -220.929688 203.710938 -223.707031 195.734375 -225.125 C 179.515625 -227.90625 163.171875 -228.738281 146.703125 -227.625 C 128.566406 -226.664062 110.859375 -224.128906 93.578125 -220.015625 C 76.304688 -215.898438 59.285156 -210.554688 42.515625 -203.984375 C 34.378906 -200.753906 26.597656 -196.863281 19.171875 -192.3125 C 16.296875 -190.644531 13.539062 -188.75 10.90625 -186.625 C 8.28125 -184.507812 5.984375 -182.007812 4.015625 -179.125 C -0.222656 -173.46875 0.332031 -168.367188 5.6875 -163.828125 C 7.90625 -161.910156 10.28125 -160.34375 12.8125 -159.125 C 16.945312 -157.15625 21.113281 -155.390625 25.3125 -153.828125 C 37.882812 -149.679688 50.664062 -146.5 63.65625 -144.28125 C 66.332031 -143.71875 68.035156 -143.800781 68.765625 -144.53125 C 69.492188 -145.269531 69.679688 -147.078125 69.328125 -149.953125 C 69.234375 -152.179688 69.007812 -154.40625 68.65625 -156.625 C 68.445312 -158.1875 68.296875 -159.804688 68.203125 -161.484375 C 67.847656 -163.148438 67.847656 -164.710938 68.203125 -166.171875 C 68.859375 -168.140625 70.296875 -169.253906 72.515625 -169.515625 C 73.421875 -169.515625 74.148438 -169.257812 74.703125 -168.75 C 75.265625 -168.25 75.695312 -167.59375 76 -166.78125 C 76.5625 -165.269531 76.96875 -163.726562 77.21875 -162.15625 C 77.96875 -156.695312 78.675781 -151.242188 79.34375 -145.796875 C 79.6875 -143.265625 81.125 -141.820312 83.65625 -141.46875 C 87.238281 -141.019531 90.800781 -140.515625 94.34375 -139.953125 C 94.789062 -139.859375 95.242188 -139.8125 95.703125 -139.8125 C 100.046875 -139.144531 104.316406 -138.359375 108.515625 -137.453125 C 109.972656 -137.148438 111.359375 -136.546875 112.671875 -135.640625 C 112.773438 -135.640625 112.828125 -135.640625 112.828125 -135.640625 C 113.285156 -135.429688 113.578125 -135.050781 113.703125 -134.5 C 113.828125 -133.945312 113.800781 -133.351562 113.625 -132.71875 C 113.445312 -132.082031 113.179688 -131.613281 112.828125 -131.3125 C 111.160156 -130.101562 109.34375 -129.597656 107.375 -129.796875 C 105.25 -130.003906 103.175781 -130.234375 101.15625 -130.484375 C 100.050781 -130.679688 98.941406 -130.832031 97.828125 -130.9375 C 93.929688 -131.488281 90.164062 -131.992188 86.53125 -132.453125 C 85.070312 -132.703125 83.632812 -132.878906 82.21875 -132.984375 C 81.40625 -132.171875 80.921875 -131.382812 80.765625 -130.625 C 80.617188 -129.875 80.546875 -129.09375 80.546875 -128.28125 C 80.546875 -128.1875 80.546875 -128.085938 80.546875 -127.984375 C 80.546875 -100.859375 80.546875 -73.734375 80.546875 -46.609375 C 80.546875 -41.296875 80.546875 -35.914062 80.546875 -30.46875 C 80.847656 -30.46875 81.175781 -30.414062 81.53125 -30.3125 C 81.988281 -30.0625 82.367188 -29.984375 82.671875 -30.078125 C 84.796875 -30.992188 86.867188 -32.003906 88.890625 -33.109375 C 110.753906 -44.878906 131.414062 -58.492188 150.875 -73.953125 C 163.445312 -83.953125 175.226562 -94.671875 186.21875 -106.109375 C 197.207031 -117.554688 207.269531 -129.953125 216.40625 -143.296875 C 222.070312 -151.628906 226.617188 -160.46875 230.046875 -169.8125 Z M 9.46875 -149.8125 C 6.03125 -151.375 2.773438 -153.21875 -0.296875 -155.34375 C -10.203125 -162.5625 -11.539062 -171.171875 -4.3125 -181.171875 C -2.34375 -183.953125 -0.046875 -186.414062 2.578125 -188.5625 C 5.203125 -190.707031 7.90625 -192.742188 10.6875 -194.671875 C 21.34375 -201.429688 32.554688 -207.085938 44.328125 -211.640625 C 79.691406 -225.628906 116.316406 -233.738281 154.203125 -235.96875 C 170.773438 -237.070312 187.117188 -236.035156 203.234375 -232.859375 C 209.796875 -231.492188 216.054688 -229.367188 222.015625 -226.484375 C 223.835938 -225.734375 225.582031 -224.898438 227.25 -223.984375 C 241.445312 -216.410156 248.164062 -204.566406 247.40625 -188.453125 C 246.75 -179.003906 244.398438 -170.015625 240.359375 -161.484375 C 237.023438 -154.148438 233.171875 -147.125 228.796875 -140.40625 C 224.429688 -133.6875 219.625 -127.195312 214.375 -120.9375 C 189.46875 -90.832031 160.46875 -65.5 127.375 -44.9375 C 114.894531 -36.851562 101.9375 -29.628906 88.5 -23.265625 C 85.820312 -21.953125 83.960938 -20.347656 82.921875 -18.453125 C 81.890625 -16.554688 81.375 -14.171875 81.375 -11.296875 C 80.675781 17.046875 79.84375 45.4375 78.875 73.875 C 78.726562 79.6875 78.550781 85.472656 78.34375 91.234375 C 78.25 95.222656 78.023438 99.289062 77.671875 103.4375 C 77.671875 103.882812 77.617188 104.3125 77.515625 104.71875 C 77.410156 106.738281 76.347656 108.203125 74.328125 109.109375 C 73.316406 109.515625 72.4375 109.515625 71.6875 109.109375 C 71.226562 108.859375 70.945312 108.632812 70.84375 108.4375 C 70.289062 108.4375 69.835938 108.3125 69.484375 108.0625 C 68.628906 107.65625 68.148438 106.945312 68.046875 105.9375 C 67.890625 105.019531 67.890625 104.132812 68.046875 103.28125 L 68.046875 101.921875 C 68.046875 97.828125 68.097656 93.660156 68.203125 89.421875 L 69.1875 -10.078125 C 69.1875 -10.984375 69.132812 -11.894531 69.03125 -12.8125 L 68.875 -13.265625 C 68.625 -13.265625 68.347656 -13.210938 68.046875 -13.109375 C 67.140625 -12.910156 66.304688 -12.582031 65.546875 -12.125 C 65.191406 -12.019531 64.785156 -11.84375 64.328125 -11.59375 C 49.878906 -5.28125 35.128906 0.207031 20.078125 4.875 C 5.023438 9.550781 -10.226562 13.660156 -25.6875 17.203125 C -29.125 18.109375 -30.941406 17.957031 -31.140625 16.75 C -32.804688 16.84375 -33.539062 16.285156 -33.34375 15.078125 C -33.132812 13.867188 -32.578125 12.984375 -31.671875 12.421875 C -30.765625 11.867188 -29.753906 11.46875 -28.640625 11.21875 L -28.484375 11.21875 C -25.253906 10.207031 -21.972656 9.320312 -18.640625 8.5625 L -13.640625 7.203125 C 13.035156 0.328125 38.800781 -8.84375 63.65625 -20.3125 C 65.675781 -21.164062 67.148438 -22.257812 68.078125 -23.59375 C 69.015625 -24.9375 69.484375 -26.722656 69.484375 -28.953125 C 69.734375 -53.046875 70.085938 -77.21875 70.546875 -101.46875 L 70.84375 -125.640625 C 70.84375 -126.648438 70.796875 -127.660156 70.703125 -128.671875 C 70.703125 -131.441406 70.375 -133.257812 69.71875 -134.125 C 69.5625 -134.125 69.429688 -134.175781 69.328125 -134.28125 C 68.578125 -134.53125 67.519531 -134.703125 66.15625 -134.796875 C 49.28125 -137.222656 32.734375 -141.289062 16.515625 -147 C 14.046875 -147.757812 11.695312 -148.695312 9.46875 -149.8125 Z M 9.46875 -149.8125 "/></g></g><g transform="translate(206.47007, 261.442442)"><g><path d="M 7.34375 -6.75 C 6.332031 -6.644531 5.222656 -7.347656 4.015625 -8.859375 C 2.804688 -10.378906 1.742188 -12.992188 0.828125 -16.703125 C -0.078125 -20.421875 -0.40625 -25.5625 -0.15625 -32.125 C -0.15625 -32.78125 -0.15625 -33.613281 -0.15625 -34.625 C -0.15625 -37.15625 -0.0390625 -40.125 0.1875 -43.53125 C 0.414062 -46.9375 0.90625 -49.988281 1.65625 -52.6875 C 2.414062 -55.394531 3.582031 -57.03125 5.15625 -57.59375 C 9.851562 -58.851562 12.40625 -57.1875 12.8125 -52.59375 C 12.8125 -51.175781 12.757812 -49.734375 12.65625 -48.265625 C 12.550781 -47.609375 12.5 -46.898438 12.5 -46.140625 C 12.394531 -44.023438 12.296875 -41.957031 12.203125 -39.9375 C 12.203125 -38.164062 12.125 -36.445312 11.96875 -34.78125 C 11.96875 -33.664062 11.96875 -32.050781 11.96875 -29.9375 C 12.125 -26.945312 12.160156 -23.695312 12.078125 -20.1875 C 12.003906 -16.675781 11.613281 -13.617188 10.90625 -11.015625 C 10.195312 -8.421875 9.007812 -7 7.34375 -6.75 Z M 11.828125 -73.28125 C 11.265625 -72.71875 10.488281 -72.359375 9.5 -72.203125 C 8.519531 -72.054688 7.753906 -72.132812 7.203125 -72.4375 C 6.640625 -73 6.269531 -73.617188 6.09375 -74.296875 C 5.914062 -74.984375 5.828125 -75.804688 5.828125 -76.765625 C 5.929688 -77.015625 5.984375 -77.238281 5.984375 -77.4375 C 6.085938 -78.351562 6.316406 -79.238281 6.671875 -80.09375 C 7.679688 -82.664062 9.726562 -83.773438 12.8125 -83.421875 C 13.914062 -83.328125 14.742188 -82.882812 15.296875 -82.09375 C 15.859375 -81.3125 16.039062 -80.441406 15.84375 -79.484375 C 15.082031 -77.109375 13.742188 -75.039062 11.828125 -73.28125 Z M 11.828125 -73.28125 "/></g></g><g transform="translate(227.081805, 261.442442)"><g><path d="M 111.6875 -45.921875 C 113.914062 -46.929688 115.207031 -47.109375 115.5625 -46.453125 C 115.957031 -45.140625 114.765625 -42.773438 111.984375 -39.359375 C 109.210938 -35.953125 105.453125 -32.484375 100.703125 -28.953125 C 89.234375 -20.960938 79.582031 -16.1875 71.75 -14.625 C 63.925781 -13.0625 57.535156 -13.550781 52.578125 -16.09375 C 47.628906 -18.644531 43.945312 -22.144531 41.53125 -26.59375 C 38.644531 -31.59375 36.847656 -36.546875 36.140625 -41.453125 C 35.179688 -46.804688 33.867188 -49.835938 32.203125 -50.546875 C 30.535156 -51.253906 28.753906 -50.492188 26.859375 -48.265625 C 24.960938 -46.046875 23.117188 -43.128906 21.328125 -39.515625 C 19.535156 -35.898438 18.054688 -32.375 16.890625 -28.9375 C 15.734375 -25.507812 15.101562 -22.910156 15 -21.140625 C 14.644531 -20.128906 14.316406 -19.171875 14.015625 -18.265625 C 13.566406 -16.847656 13.0625 -15.457031 12.5 -14.09375 C 11.039062 -10.300781 8.488281 -8.910156 4.84375 -9.921875 C 2.820312 -10.273438 1.660156 -11.515625 1.359375 -13.640625 C 1.210938 -15.054688 1.140625 -16.546875 1.140625 -18.109375 C 1.140625 -19.316406 1.085938 -20.601562 0.984375 -21.96875 C 0.785156 -31.0625 0.554688 -40.234375 0.296875 -49.484375 C 0.296875 -50.585938 0.828125 -51.351562 1.890625 -51.78125 C 2.953125 -52.21875 4.175781 -52.410156 5.5625 -52.359375 C 6.957031 -52.304688 8.179688 -52.085938 9.234375 -51.703125 C 10.296875 -51.328125 10.878906 -50.789062 10.984375 -50.09375 C 11.234375 -48.570312 11.359375 -47.253906 11.359375 -46.140625 C 11.359375 -44.578125 11.457031 -43.453125 11.65625 -42.765625 C 11.863281 -42.085938 12.332031 -42.113281 13.0625 -42.84375 C 13.800781 -43.582031 15.054688 -45.113281 16.828125 -47.4375 C 19.597656 -51.882812 23.109375 -55.671875 27.359375 -58.796875 C 29.222656 -60.210938 31.429688 -61.234375 33.984375 -61.859375 C 36.535156 -62.492188 39 -62.585938 41.375 -62.140625 C 43.894531 -61.484375 45.875 -60.039062 47.3125 -57.8125 C 48.757812 -55.59375 49.847656 -53.054688 50.578125 -50.203125 C 51.304688 -47.347656 51.847656 -44.707031 52.203125 -42.28125 C 52.304688 -41.625 52.410156 -41.066406 52.515625 -40.609375 C 53.066406 -37.378906 53.8125 -34.4375 54.75 -31.78125 C 55.6875 -29.132812 57.210938 -27.050781 59.328125 -25.53125 C 61.453125 -24.019531 64.5625 -23.441406 68.65625 -23.796875 C 77.539062 -24.453125 84.597656 -26.304688 89.828125 -29.359375 C 95.054688 -32.421875 99.460938 -35.664062 103.046875 -39.09375 C 103.609375 -39.550781 104.09375 -40.007812 104.5 -40.46875 C 105.300781 -41.019531 105.984375 -41.570312 106.546875 -42.125 C 107.859375 -43.539062 109.570312 -44.804688 111.6875 -45.921875 Z M 111.6875 -45.921875 "/></g></g></g></svg>